<?xml version="1.0" encoding="UTF-8" standalone="no"?>
<!DOCTYPE svg PUBLIC "-//W3C//DTD SVG 1.1//EN"
 "http://www.w3.org/Graphics/SVG/1.1/DTD/svg11.dtd">
<!-- Generated by graphviz version 14.1.1 (20251213.1925)
 -->
<!-- Title: InheritanceTree Pages: 1 -->
<svg width="387pt" height="789pt"
 viewBox="0.00 0.00 387.00 789.00" xmlns="http://www.w3.org/2000/svg" xmlns:xlink="http://www.w3.org/1999/xlink">
<g id="graph0" class="graph" transform="scale(1 1) rotate(0) translate(4 784.5)">
<title>InheritanceTree</title>
<polygon fill="white" stroke="none" points="-4,4 -4,-784.5 382.5,-784.5 382.5,4 -4,4"/>
<text xml:space="preserve" text-anchor="middle" x="189.25" y="-7.2" font-family="Times New Roman,serif" font-size="14.00">simple_xlsx &#45; Inheritance Hierarchy</text>
<!-- SIMPLE_XLSX -->
<g id="node1" class="node">
<title>SIMPLE_XLSX</title>
<path fill="none" stroke="black" d="M110.5,-60.5C110.5,-60.5 27.75,-60.5 27.75,-60.5 21.75,-60.5 15.75,-54.5 15.75,-48.5 15.75,-48.5 15.75,-36.5 15.75,-36.5 15.75,-30.5 21.75,-24.5 27.75,-24.5 27.75,-24.5 110.5,-24.5 110.5,-24.5 116.5,-24.5 122.5,-30.5 122.5,-36.5 122.5,-36.5 122.5,-48.5 122.5,-48.5 122.5,-54.5 116.5,-60.5 110.5,-60.5"/>
<text xml:space="preserve" text-anchor="middle" x="69.12" y="-37.45" font-family="Times New Roman,serif" font-size="14.00">SIMPLE_XLSX</text>
</g>
<!-- XLSX_CELL -->
<g id="node2" class="node">
<title>XLSX_CELL</title>
<path fill="none" stroke="black" d="M103,-132.5C103,-132.5 35.25,-132.5 35.25,-132.5 29.25,-132.5 23.25,-126.5 23.25,-120.5 23.25,-120.5 23.25,-108.5 23.25,-108.5 23.25,-102.5 29.25,-96.5 35.25,-96.5 35.25,-96.5 103,-96.5 103,-96.5 109,-96.5 115,-102.5 115,-108.5 115,-108.5 115,-120.5 115,-120.5 115,-126.5 109,-132.5 103,-132.5"/>
<text xml:space="preserve" text-anchor="middle" x="69.12" y="-109.45" font-family="Times New Roman,serif" font-size="14.00">XLSX_CELL</text>
</g>
<!-- XLSX_CELL_TYPE -->
<g id="node3" class="node">
<title>XLSX_CELL_TYPE</title>
<path fill="none" stroke="black" d="M366.5,-132.5C366.5,-132.5 258.25,-132.5 258.25,-132.5 252.25,-132.5 246.25,-126.5 246.25,-120.5 246.25,-120.5 246.25,-108.5 246.25,-108.5 246.25,-102.5 252.25,-96.5 258.25,-96.5 258.25,-96.5 366.5,-96.5 366.5,-96.5 372.5,-96.5 378.5,-102.5 378.5,-108.5 378.5,-108.5 378.5,-120.5 378.5,-120.5 378.5,-126.5 372.5,-132.5 366.5,-132.5"/>
<text xml:space="preserve" text-anchor="middle" x="312.38" y="-109.45" font-family="Times New Roman,serif" font-size="14.00">XLSX_CELL_TYPE</text>
</g>
<!-- XLSX_CELL&#45;&gt;XLSX_CELL_TYPE -->
<g id="edge1" class="edge">
<title>XLSX_CELL&#45;&gt;XLSX_CELL_TYPE</title>
<path fill="none" stroke="black" d="M115.45,-114.5C115.45,-114.5 234.49,-114.5 234.49,-114.5"/>
<polygon fill="none" stroke="black" points="234.49,-118 244.49,-114.5 234.49,-111 234.49,-118"/>
</g>
<!-- XLSX_READER -->
<g id="node4" class="node">
<title>XLSX_READER</title>
<path fill="none" stroke="black" d="M113.12,-204.5C113.12,-204.5 25.12,-204.5 25.12,-204.5 19.12,-204.5 13.13,-198.5 13.13,-192.5 13.13,-192.5 13.13,-180.5 13.13,-180.5 13.13,-174.5 19.13,-168.5 25.13,-168.5 25.13,-168.5 113.12,-168.5 113.12,-168.5 119.12,-168.5 125.12,-174.5 125.12,-180.5 125.12,-180.5 125.12,-192.5 125.12,-192.5 125.12,-198.5 119.12,-204.5 113.12,-204.5"/>
<text xml:space="preserve" text-anchor="middle" x="69.12" y="-181.45" font-family="Times New Roman,serif" font-size="14.00">XLSX_READER</text>
</g>
<!-- XLSX_ROW -->
<g id="node5" class="node">
<title>XLSX_ROW</title>
<path fill="none" stroke="black" d="M102.25,-276.5C102.25,-276.5 36,-276.5 36,-276.5 30,-276.5 24,-270.5 24,-264.5 24,-264.5 24,-252.5 24,-252.5 24,-246.5 30,-240.5 36,-240.5 36,-240.5 102.25,-240.5 102.25,-240.5 108.25,-240.5 114.25,-246.5 114.25,-252.5 114.25,-252.5 114.25,-264.5 114.25,-264.5 114.25,-270.5 108.25,-276.5 102.25,-276.5"/>
<text xml:space="preserve" text-anchor="middle" x="69.12" y="-253.45" font-family="Times New Roman,serif" font-size="14.00">XLSX_ROW</text>
</g>
<!-- XLSX_SHEET -->
<g id="node6" class="node">
<title>XLSX_SHEET</title>
<path fill="none" stroke="black" d="M107.12,-348.5C107.12,-348.5 31.12,-348.5 31.12,-348.5 25.12,-348.5 19.12,-342.5 19.12,-336.5 19.12,-336.5 19.12,-324.5 19.12,-324.5 19.12,-318.5 25.12,-312.5 31.12,-312.5 31.12,-312.5 107.12,-312.5 107.12,-312.5 113.12,-312.5 119.12,-318.5 119.12,-324.5 119.12,-324.5 119.12,-336.5 119.12,-336.5 119.12,-342.5 113.12,-348.5 107.12,-348.5"/>
<text xml:space="preserve" text-anchor="middle" x="69.12" y="-325.45" font-family="Times New Roman,serif" font-size="14.00">XLSX_SHEET</text>
</g>
<!-- XLSX_STYLE -->
<g id="node7" class="node">
<title>XLSX_STYLE</title>
<path fill="none" stroke="black" d="M107.12,-420.5C107.12,-420.5 31.12,-420.5 31.12,-420.5 25.12,-420.5 19.12,-414.5 19.12,-408.5 19.12,-408.5 19.12,-396.5 19.12,-396.5 19.12,-390.5 25.12,-384.5 31.12,-384.5 31.12,-384.5 107.12,-384.5 107.12,-384.5 113.12,-384.5 119.12,-390.5 119.12,-396.5 119.12,-396.5 119.12,-408.5 119.12,-408.5 119.12,-414.5 113.12,-420.5 107.12,-420.5"/>
<text xml:space="preserve" text-anchor="middle" x="69.12" y="-397.45" font-family="Times New Roman,serif" font-size="14.00">XLSX_STYLE</text>
</g>
<!-- XLSX_WORKBOOK -->
<g id="node8" class="node">
<title>XLSX_WORKBOOK</title>
<path fill="none" stroke="black" d="M126.25,-492.5C126.25,-492.5 12,-492.5 12,-492.5 6,-492.5 0,-486.5 0,-480.5 0,-480.5 0,-468.5 0,-468.5 0,-462.5 6,-456.5 12,-456.5 12,-456.5 126.25,-456.5 126.25,-456.5 132.25,-456.5 138.25,-462.5 138.25,-468.5 138.25,-468.5 138.25,-480.5 138.25,-480.5 138.25,-486.5 132.25,-492.5 126.25,-492.5"/>
<text xml:space="preserve" text-anchor="middle" x="69.12" y="-469.45" font-family="Times New Roman,serif" font-size="14.00">XLSX_WORKBOOK</text>
</g>
<!-- XLSX_WRITER -->
<g id="node9" class="node">
<title>XLSX_WRITER</title>
<path fill="none" stroke="black" d="M112.38,-564.5C112.38,-564.5 25.88,-564.5 25.88,-564.5 19.88,-564.5 13.88,-558.5 13.88,-552.5 13.88,-552.5 13.88,-540.5 13.88,-540.5 13.88,-534.5 19.88,-528.5 25.88,-528.5 25.88,-528.5 112.38,-528.5 112.38,-528.5 118.38,-528.5 124.38,-534.5 124.38,-540.5 124.38,-540.5 124.38,-552.5 124.38,-552.5 124.38,-558.5 118.38,-564.5 112.38,-564.5"/>
<text xml:space="preserve" text-anchor="middle" x="69.12" y="-541.45" font-family="Times New Roman,serif" font-size="14.00">XLSX_WRITER</text>
</g>
<!-- ZIP_ARCHIVE -->
<g id="node10" class="node">
<title>ZIP_ARCHIVE</title>
<path fill="none" stroke="black" d="M108.62,-636.5C108.62,-636.5 29.62,-636.5 29.62,-636.5 23.62,-636.5 17.62,-630.5 17.62,-624.5 17.62,-624.5 17.62,-612.5 17.62,-612.5 17.62,-606.5 23.62,-600.5 29.62,-600.5 29.62,-600.5 108.62,-600.5 108.62,-600.5 114.62,-600.5 120.62,-606.5 120.62,-612.5 120.62,-612.5 120.62,-624.5 120.62,-624.5 120.62,-630.5 114.62,-636.5 108.62,-636.5"/>
<text xml:space="preserve" text-anchor="middle" x="69.12" y="-613.45" font-family="Times New Roman,serif" font-size="14.00">ZIP_ARCHIVE</text>
</g>
<!-- LIB_TESTS -->
<g id="node11" class="node">
<title>LIB_TESTS</title>
<path fill="none" stroke="black" d="M99.25,-708.5C99.25,-708.5 39,-708.5 39,-708.5 33,-708.5 27,-702.5 27,-696.5 27,-696.5 27,-684.5 27,-684.5 27,-678.5 33,-672.5 39,-672.5 39,-672.5 99.25,-672.5 99.25,-672.5 105.25,-672.5 111.25,-678.5 111.25,-684.5 111.25,-684.5 111.25,-696.5 111.25,-696.5 111.25,-702.5 105.25,-708.5 99.25,-708.5"/>
<text xml:space="preserve" text-anchor="middle" x="69.12" y="-685.45" font-family="Times New Roman,serif" font-size="14.00">LIB_TESTS</text>
</g>
<!-- TEST_SET_BASE -->
<g id="node12" class="node">
<title>TEST_SET_BASE</title>
<path fill="none" stroke="black" d="M360.5,-708.5C360.5,-708.5 264.25,-708.5 264.25,-708.5 258.25,-708.5 252.25,-702.5 252.25,-696.5 252.25,-696.5 252.25,-684.5 252.25,-684.5 252.25,-678.5 258.25,-672.5 264.25,-672.5 264.25,-672.5 360.5,-672.5 360.5,-672.5 366.5,-672.5 372.5,-678.5 372.5,-684.5 372.5,-684.5 372.5,-696.5 372.5,-696.5 372.5,-702.5 366.5,-708.5 360.5,-708.5"/>
<text xml:space="preserve" text-anchor="middle" x="312.38" y="-685.45" font-family="Times New Roman,serif" font-size="14.00">TEST_SET_BASE</text>
</g>
<!-- LIB_TESTS&#45;&gt;TEST_SET_BASE -->
<g id="edge2" class="edge">
<title>LIB_TESTS&#45;&gt;TEST_SET_BASE</title>
<path fill="none" stroke="black" d="M111.5,-690.5C111.5,-690.5 240.29,-690.5 240.29,-690.5"/>
<polygon fill="none" stroke="black" points="240.29,-694 250.29,-690.5 240.29,-687 240.29,-694"/>
</g>
<!-- TEST_APP -->
<g id="node13" class="node">
<title>TEST_APP</title>
<path fill="none" stroke="black" d="M97,-780.5C97,-780.5 41.25,-780.5 41.25,-780.5 35.25,-780.5 29.25,-774.5 29.25,-768.5 29.25,-768.5 29.25,-756.5 29.25,-756.5 29.25,-750.5 35.25,-744.5 41.25,-744.5 41.25,-744.5 97,-744.5 97,-744.5 103,-744.5 109,-750.5 109,-756.5 109,-756.5 109,-768.5 109,-768.5 109,-774.5 103,-780.5 97,-780.5"/>
<text xml:space="preserve" text-anchor="middle" x="69.12" y="-757.45" font-family="Times New Roman,serif" font-size="14.00">TEST_APP</text>
</g>
</g>
</svg>
