<?xml version="1.0" encoding="UTF-8" standalone="no"?>
<!DOCTYPE svg PUBLIC "-//W3C//DTD SVG 1.1//EN"
 "http://www.w3.org/Graphics/SVG/1.1/DTD/svg11.dtd">
<!-- Generated by graphviz version 14.1.1 (20251213.1925)
 -->
<!-- Title: Dependencies Pages: 1 -->
<svg width="333pt" height="501pt"
 viewBox="0.00 0.00 333.00 501.00" xmlns="http://www.w3.org/2000/svg" xmlns:xlink="http://www.w3.org/1999/xlink">
<g id="graph0" class="graph" transform="scale(1 1) rotate(0) translate(4 496.5)">
<title>Dependencies</title>
<polygon fill="white" stroke="none" points="-4,4 -4,-496.5 329.25,-496.5 329.25,4 -4,4"/>
<text xml:space="preserve" text-anchor="middle" x="162.62" y="-7.2" font-family="Times New Roman,serif" font-size="14.00">simple_xlsx &#45; Dependencies</text>
<!-- simple_xlsx -->
<g id="node1" class="node">
<title>simple_xlsx</title>
<polygon fill="lightblue" stroke="black" points="82,-276.5 0,-276.5 0,-240.5 82,-240.5 82,-276.5"/>
<text xml:space="preserve" text-anchor="middle" x="41" y="-253.45" font-family="Times New Roman,serif" font-size="14.00">simple_xlsx</text>
</g>
<!-- simple_file -->
<g id="node2" class="node">
<title>simple_file</title>
<polygon fill="lightblue" stroke="black" points="314.38,-492.5 236.88,-492.5 236.88,-456.5 314.38,-456.5 314.38,-492.5"/>
<text xml:space="preserve" text-anchor="middle" x="275.62" y="-469.45" font-family="Times New Roman,serif" font-size="14.00">simple_file</text>
</g>
<!-- simple_xlsx&#45;&gt;simple_file -->
<g id="edge1" class="edge">
<title>simple_xlsx&#45;&gt;simple_file</title>
<path fill="none" stroke="black" stroke-dasharray="5,2" d="M20.25,-276.92C20.25,-329.15 20.25,-474.5 20.25,-474.5 20.25,-474.5 225.05,-474.5 225.05,-474.5"/>
<polygon fill="black" stroke="black" points="225.05,-478 235.05,-474.5 225.05,-471 225.05,-478"/>
</g>
<!-- simple_xml -->
<g id="node3" class="node">
<title>simple_xml</title>
<polygon fill="lightblue" stroke="black" points="316.25,-420.5 235,-420.5 235,-384.5 316.25,-384.5 316.25,-420.5"/>
<text xml:space="preserve" text-anchor="middle" x="275.62" y="-397.45" font-family="Times New Roman,serif" font-size="14.00">simple_xml</text>
</g>
<!-- simple_xlsx&#45;&gt;simple_xml -->
<g id="edge2" class="edge">
<title>simple_xlsx&#45;&gt;simple_xml</title>
<path fill="none" stroke="black" stroke-dasharray="5,2" d="M41.25,-276.74C41.25,-315.49 41.25,-402.5 41.25,-402.5 41.25,-402.5 223.02,-402.5 223.02,-402.5"/>
<polygon fill="black" stroke="black" points="223.02,-406 233.02,-402.5 223.02,-399 223.02,-406"/>
</g>
<!-- simple_archive -->
<g id="node4" class="node">
<title>simple_archive</title>
<polygon fill="lightblue" stroke="black" points="325.25,-348.5 226,-348.5 226,-312.5 325.25,-312.5 325.25,-348.5"/>
<text xml:space="preserve" text-anchor="middle" x="275.62" y="-325.45" font-family="Times New Roman,serif" font-size="14.00">simple_archive</text>
</g>
<!-- simple_xlsx&#45;&gt;simple_archive -->
<g id="edge3" class="edge">
<title>simple_xlsx&#45;&gt;simple_archive</title>
<path fill="none" stroke="black" stroke-dasharray="5,2" d="M61.25,-276.67C61.25,-298 61.25,-330.5 61.25,-330.5 61.25,-330.5 214.12,-330.5 214.12,-330.5"/>
<polygon fill="black" stroke="black" points="214.12,-334 224.12,-330.5 214.12,-327 214.12,-334"/>
</g>
<!-- simple_testing -->
<g id="node5" class="node">
<title>simple_testing</title>
<polygon fill="lightblue" stroke="black" points="323.38,-276.5 227.88,-276.5 227.88,-240.5 323.38,-240.5 323.38,-276.5"/>
<text xml:space="preserve" text-anchor="middle" x="275.62" y="-253.45" font-family="Times New Roman,serif" font-size="14.00">simple_testing</text>
</g>
<!-- simple_xlsx&#45;&gt;simple_testing -->
<g id="edge4" class="edge">
<title>simple_xlsx&#45;&gt;simple_testing</title>
<path fill="none" stroke="black" stroke-dasharray="5,2" d="M82.41,-258.5C82.41,-258.5 216.25,-258.5 216.25,-258.5"/>
<polygon fill="black" stroke="black" points="216.25,-262 226.25,-258.5 216.25,-255 216.25,-262"/>
</g>
<!-- base -->
<g id="node6" class="node">
<title>base</title>
<polygon fill="lightgray" stroke="black" points="302.62,-204.5 248.62,-204.5 248.62,-168.5 302.62,-168.5 302.62,-204.5"/>
<text xml:space="preserve" text-anchor="middle" x="275.62" y="-181.45" font-family="Times New Roman,serif" font-size="14.00">base</text>
</g>
<!-- simple_xlsx&#45;&gt;base -->
<g id="edge5" class="edge">
<title>simple_xlsx&#45;&gt;base</title>
<path fill="none" stroke="black" stroke-dasharray="5,2" d="M61.25,-240.33C61.25,-219 61.25,-186.5 61.25,-186.5 61.25,-186.5 236.96,-186.5 236.96,-186.5"/>
<polygon fill="black" stroke="black" points="236.96,-190 246.96,-186.5 236.96,-183 236.96,-190"/>
</g>
<!-- time -->
<g id="node7" class="node">
<title>time</title>
<polygon fill="lightgray" stroke="black" points="302.62,-132.5 248.62,-132.5 248.62,-96.5 302.62,-96.5 302.62,-132.5"/>
<text xml:space="preserve" text-anchor="middle" x="275.62" y="-109.45" font-family="Times New Roman,serif" font-size="14.00">time</text>
</g>
<!-- simple_xlsx&#45;&gt;time -->
<g id="edge6" class="edge">
<title>simple_xlsx&#45;&gt;time</title>
<path fill="none" stroke="black" stroke-dasharray="5,2" d="M41.25,-240.26C41.25,-201.51 41.25,-114.5 41.25,-114.5 41.25,-114.5 236.77,-114.5 236.77,-114.5"/>
<polygon fill="black" stroke="black" points="236.77,-118 246.77,-114.5 236.77,-111 236.77,-118"/>
</g>
<!-- testing -->
<g id="node8" class="node">
<title>testing</title>
<polygon fill="lightgray" stroke="black" points="302.62,-60.5 248.62,-60.5 248.62,-24.5 302.62,-24.5 302.62,-60.5"/>
<text xml:space="preserve" text-anchor="middle" x="275.62" y="-37.45" font-family="Times New Roman,serif" font-size="14.00">testing</text>
</g>
<!-- simple_xlsx&#45;&gt;testing -->
<g id="edge7" class="edge">
<title>simple_xlsx&#45;&gt;testing</title>
<path fill="none" stroke="black" stroke-dasharray="5,2" d="M20.25,-240.08C20.25,-187.85 20.25,-42.5 20.25,-42.5 20.25,-42.5 236.78,-42.5 236.78,-42.5"/>
<polygon fill="black" stroke="black" points="236.78,-46 246.78,-42.5 236.78,-39 236.78,-46"/>
</g>
</g>
</svg>
